<svg width="1600" height="1600" viewBox="0 0 1200 1200" xmlns="http://www.w3.org/2000/svg">
  <g style="fill:#a66030">
    <path transform="rotate(30 600 600)" d="M523.64 553.9v76.555h152.71V553.9ZM691.11 1153.1c17.84-20.934 48.59-81.637 17.383-236.85-1.922-9.59-4.48-20.195-7.238-31.594-11.203-46.445-25.18-104.25-12.188-159.79 2.539-9.02 13.379-53.746-12.488-75.684l-153.14.004c-25.855 21.938-15.04 66.648-12.703 74.867 13.199 56.352-.77 114.15-11.98 160.59-2.758 11.41-5.305 22.012-7.239 31.602-31.199 155.21-.449 215.91 17.391 236.85zM522.45 1171.9v5.586c0 12.44 10.105 22.539 22.566 22.539h109.97c12.461 0 22.555-10.098 22.555-22.54v-5.585Z"/>
    <path transform="rotate(30 600 600)" d="M714.54 13.098V0H485.47v13.238c21.789 11.492 121.32 57.207 229.07-.14z"/>
    <path transform="rotate(30 600 600)" d="M601.59 60.684c-53.023 0-95.195-16.34-116.13-26.383v341.24c0 30.965 12.133 62.867 37.848 75.883 7.379 3.73 23.68 7.406 31.715 9.355 17.68 4.274 15.836 3.77 15.836 53.13v21.254h58.285v-21.254c0-47.758-4.836-49.238 15.836-55.22 7.5-2.164 23.445-3.234 30.582-6.43 26.738-11.972 38.973-45.253 38.973-76.714v-341.4C674.34 53.77 635.734 60.68 601.585 60.68z"/>
  </g>
</svg>