<?xml version="1.0" encoding="UTF-8"?>
<svg width="1200pt" height="1200pt" version="1.1" viewBox="0 0 1200 1200" xmlns="http://www.w3.org/2000/svg">
 <path fill="#005a17" d="m1182 181.16c0-3.1797-1.2617-6.2383-3.5156-8.4844l-151.18-151.16c-4.6914-4.6914-12.277-4.6914-16.969 0l-66.48 66.48c-2.0391 0.50391-3.9961 1.3555-5.5938 2.9531-1.5977 1.5977-2.4375 3.5508-2.9531 5.5938l-392.94 392.95c-4.6914 4.6914-4.6914 12.277 0 16.969l35.594 35.605-44.641 44.641c-23.004-21.277-39.949-29.363-55.512-26.594-21.793 3.8867-32.746 27.637-46.633 57.707-13.836 29.988-31.055 67.309-64.043 100.3-0.023437 0.023437-0.023437 0.046874-0.046875 0.070312s-0.058594 0.035156-0.085938 0.058594c-32.027 33.012-71.746 46.609-113.79 60.996-47.09 16.117-100.45 34.379-149.24 83.16-96.074 96.109-107.83 233.44-53.82 287.45 21.023 21.023 54.672 32.074 93.59 32.074 61.078 0 135.16-27.238 193.84-85.922 48.793-48.793 67.055-102.17 83.172-149.26 14.387-42.035 27.973-81.758 60.984-113.77 0.023437-0.023437 0.023437-0.058594 0.046874-0.085937 0.023438-0.023438 0.046876-0.023438 0.070313-0.046875 32.988-32.977 70.309-50.207 100.31-64.043 30.07-13.871 53.832-24.84 57.707-46.633 2.7734-15.527-5.293-32.508-26.578-55.523l44.641-44.641 35.594 35.605c2.2578 2.2578 5.293 3.5156 8.4844 3.5156s6.2383-1.2617 8.4844-3.5156l392.96-392.95c2.0391-0.50391 3.9961-1.3555 5.5938-2.9531 1.5977-1.5977 2.4375-3.5508 2.9531-5.5938l66.48-66.48c2.2461-2.2227 3.5078-5.2812 3.5078-8.4609zm-593.98 476.83c-4.6914 4.6914-4.6914 12.277 0 16.969 25.188 25.188 29.258 37.273 28.234 42.996-1.6914 9.457-21.359 18.539-44.148 29.051-30 13.848-71.074 32.809-107.05 68.723-0.011719 0.011719-0.023438 0.011719-0.035156 0.023437-0.023438 0.023438-0.035157 0.046876-0.058594 0.070313-0.023438 0.023437-0.035156 0.035156-0.058594 0.058594-0.011719 0.011719-0.011719 0.023437-0.023438 0.035156-37.02 36.012-51.504 78.289-66.828 123.07-16.02 46.789-32.578 95.195-77.438 140.05-85.117 85.129-208.26 99.07-253.49 53.844-45.215-45.227-31.273-168.38 53.832-253.51 44.855-44.832 93.238-61.391 140.04-77.41 44.785-15.324 87.07-29.809 123.09-66.84 0-0.011719 0.011718-0.011719 0.023437-0.023438 0.023437-0.023437 0.035156-0.046874 0.058594-0.058593 0.023437-0.023438 0.046875-0.046875 0.070312-0.070313 0.011719-0.011718 0.011719-0.023437 0.023438-0.035156 35.902-35.977 54.863-77.051 68.711-107.05 10.512-22.777 19.586-42.457 29.051-44.137 5.6523-1.043 17.797 3.0352 42.996 28.234 2.3398 2.3398 5.4102 3.5156 8.4844 3.5156 3.0703 0 6.1445-1.1758 8.4844-3.5156l52.945-52.945 46.02 46.02zm113.99-25.824-35.578-35.578s0-0.011719-0.011719-0.023438c-0.011719-0.011718-0.023437-0.011718-0.023437-0.011718l-62.953-62.953c0-0.011719-0.011718-0.023438-0.011718-0.023438s-0.011719-0.011719-0.023438-0.011719l-35.578-35.578 380.25-380.27 134.2 134.2zm397.23-397.22-134.2-134.2 53.773-53.785 134.21 134.2z"/>
</svg>
