<?xml version="1.0" encoding="UTF-8"?>
<svg width="1200pt" height="1200pt" version="1.1" viewBox="0 0 1200 1200" xmlns="http://www.w3.org/2000/svg">
 <g>
  <path d="m523.64 553.9v76.555h152.71v-76.555z"/>
  <path d="m691.11 1153.1c17.84-20.934 48.59-81.637 17.383-236.85-1.9219-9.5898-4.4805-20.195-7.2383-31.594-11.203-46.445-25.18-104.25-12.188-159.79 2.5391-9.0195 13.379-53.746-12.488-75.684l-153.14 0.003907c-25.855 21.938-15.039 66.648-12.703 74.867 13.199 56.352-0.76953 114.15-11.98 160.59-2.7578 11.41-5.3047 22.012-7.2383 31.602-31.199 155.21-0.44922 215.91 17.391 236.85z"/>
  <path d="m522.45 1171.9v5.5859c0 12.441 10.105 22.539 22.566 22.539h109.97c12.461 0 22.555-10.098 22.555-22.539v-5.5859z"/>
  <path d="m714.54 13.098v-13.098h-229.07v13.238c21.789 11.492 121.32 57.207 229.07-0.14062z"/>
  <path d="m601.59 60.684c-53.023 0-95.195-16.34-116.13-26.383v341.24c0 30.965 12.133 62.867 37.848 75.883 7.3789 3.7305 23.68 7.4062 31.715 9.3555 17.68 4.2734 15.836 3.7695 15.836 53.129v21.254h58.285v-21.254c0-47.758-4.8359-49.238 15.836-55.219 7.5-2.1641 23.445-3.2344 30.582-6.4297 26.738-11.973 38.973-45.254 38.973-76.715v-341.4c-40.195 19.625-78.801 26.535-112.95 26.535z"/>
 </g>
</svg>
